<?xml version="1.0"?>
<svg xmlns="http://www.w3.org/2000/svg" xmlns:xlink="http://www.w3.org/1999/xlink" xmlns:svgjs="http://svgjs.com/svgjs" version="1.1" width="512" height="512" x="0" y="0" viewBox="0 0 32 32" style="enable-background:new 0 0 512 512" xml:space="preserve" class=""><g><path xmlns="http://www.w3.org/2000/svg" d="m26 32h-20c-3.314 0-6-2.686-6-6v-20c0-3.314 2.686-6 6-6h20c3.314 0 6 2.686 6 6v20c0 3.314-2.686 6-6 6z" fill="#e8f1ff" data-original="#f5e6fe" style="" class=""/><g xmlns="http://www.w3.org/2000/svg" fill="#be63f9"><path d="m20.667 14.667h-9.334c-.368 0-.667-.299-.667-.667s.298-.667.667-.667h9.334c.369 0 .667.299.667.667s-.299.667-.667.667z" fill="#428dff" data-original="#be63f9" style="" class=""/><path d="m16 17.333h-4.667c-.368 0-.667-.299-.667-.667s.299-.666.667-.666h4.667c.369 0 .667.299.667.667s-.298.666-.667.666z" fill="#428dff" data-original="#be63f9" style="" class=""/><path d="m14.667 20h-3.334c-.368 0-.667-.299-.667-.667s.298-.667.667-.667h3.334c.369 0 .667.299.667.667s-.299.667-.667.667z" fill="#428dff" data-original="#be63f9" style="" class=""/></g><path xmlns="http://www.w3.org/2000/svg" d="m20.334 16.667c-2.022 0-3.667 1.645-3.667 3.667s1.645 3.666 3.667 3.666 3.666-1.645 3.666-3.667-1.645-3.666-3.666-3.666zm1.91 3.115-1.818 2c-.122.134-.294.213-.475.218-.006 0-.012 0-.018 0-.175 0-.343-.069-.468-.192l-1.015-1c-.262-.258-.265-.681-.007-.943.257-.263.679-.266.943-.007l.52.513 1.352-1.487c.249-.272.671-.292.942-.045.271.249.291.67.044.943z" fill="#0d6af9" data-original="#d9a4fc" style="" class=""/><path xmlns="http://www.w3.org/2000/svg" d="m22 8h-12c-1.1 0-2 .9-2 2v10.667c0 1.1.9 2 2 2h5.92c-.227-.413-.393-.86-.487-1.333h-5.433c-.367 0-.667-.3-.667-.667v-9.333h13.334v4.587c.507.26.96.607 1.333 1.027v-6.948c0-1.1-.9-2-2-2z" fill="#428dff" data-original="#be63f9" style="" class=""/></g></svg>
