<svg id="Layer_1" data-name="Layer 1" xmlns="http://www.w3.org/2000/svg" xmlns:xlink="http://www.w3.org/1999/xlink" viewBox="0 0 2983.99 606.06"><defs><style>.cls-1{fill:#0f62fe;}.cls-2{fill:url(#linear-gradient);}.cls-3{fill:url(#linear-gradient-2);}.cls-4{fill:url(#linear-gradient-3);}.cls-5{fill:url(#linear-gradient-4);}.cls-6{fill:url(#linear-gradient-5);}.cls-7{fill:url(#linear-gradient-6);}.cls-8{fill:none;}.cls-9{fill:url(#linear-gradient-7);}.cls-10{fill:url(#linear-gradient-8);}.cls-11{fill:url(#linear-gradient-9);}.cls-12{fill:url(#linear-gradient-10);}.cls-13{fill:url(#linear-gradient-11);}.cls-14{fill:url(#linear-gradient-12);}.cls-15{fill:url(#linear-gradient-13);}.cls-16{fill:url(#linear-gradient-14);}.cls-17{fill:url(#linear-gradient-15);}.cls-18{fill:url(#linear-gradient-16);}.cls-19{fill:url(#linear-gradient-17);}.cls-20{fill:url(#linear-gradient-18);}.cls-21{fill:url(#linear-gradient-19);}</style><linearGradient id="linear-gradient" x1="605.78" y1="231.86" x2="666.38" y2="231.86" gradientUnits="userSpaceOnUse"><stop offset="0" stop-color="#25527d"/><stop offset="0.14" stop-color="#245a8d" stop-opacity="0.86"/><stop offset="0.41" stop-color="#2271b7" stop-opacity="0.48"/><stop offset="0.72" stop-color="#1f8ded" stop-opacity="0"/></linearGradient><linearGradient id="linear-gradient-2" x1="155.53" y1="498.72" x2="342.5" y2="498.72" xlink:href="#linear-gradient"/><linearGradient id="linear-gradient-3" x1="637.19" y1="499.95" x2="823.17" y2="499.95" gradientTransform="matrix(-1, 0, 0, 1, 1285.26, 0)" xlink:href="#linear-gradient"/><linearGradient id="linear-gradient-4" x1="595.66" y1="400.14" x2="637.66" y2="397.64" gradientUnits="userSpaceOnUse"><stop offset="0" stop-color="#25527d"/><stop offset="0.23" stop-color="#23629b" stop-opacity="0.81"/><stop offset="0.38" stop-color="#226eb2" stop-opacity="0.59"/><stop offset="0.71" stop-color="#1f8ceb" stop-opacity="0.02"/><stop offset="0.72" stop-color="#1f8ded" stop-opacity="0"/></linearGradient><linearGradient id="linear-gradient-5" x1="390.48" y1="451.64" x2="318.37" y2="422.02" xlink:href="#linear-gradient-4"/><linearGradient id="linear-gradient-6" x1="561.52" y1="452.89" x2="490.47" y2="423.7" xlink:href="#linear-gradient-4"/><linearGradient id="linear-gradient-7" x1="1244.48" y1="385.26" x2="1141.15" y2="384.59" xlink:href="#linear-gradient"/><linearGradient id="linear-gradient-8" x1="1225.16" y1="469.08" x2="1144.49" y2="463.41" xlink:href="#linear-gradient"/><linearGradient id="linear-gradient-9" x1="1369.76" y1="341.23" x2="1421.24" y2="304.56" xlink:href="#linear-gradient"/><linearGradient id="linear-gradient-10" x1="1622.64" y1="455.12" x2="1715.94" y2="455.12" xlink:href="#linear-gradient"/><linearGradient id="linear-gradient-11" x1="2279.63" y1="455.45" x2="2373.6" y2="455.45" gradientTransform="matrix(-1, 0, 0, 1, 4851.91, 0)" xlink:href="#linear-gradient"/><linearGradient id="linear-gradient-12" x1="1845.42" y1="388.87" x2="1928.75" y2="445.54" xlink:href="#linear-gradient"/><linearGradient id="linear-gradient-13" x1="2101.41" y1="459.57" x2="2162.08" y2="488.24" xlink:href="#linear-gradient"/><linearGradient id="linear-gradient-14" x1="2334.15" y1="328.8" x2="2357.65" y2="461.8" xlink:href="#linear-gradient"/><linearGradient id="linear-gradient-15" x1="2303.35" y1="477.55" x2="2153.02" y2="368.88" xlink:href="#linear-gradient"/><linearGradient id="linear-gradient-16" x1="2834.39" y1="349.1" x2="2760.89" y2="316.35" xlink:href="#linear-gradient"/><linearGradient id="linear-gradient-17" x1="2826.48" y1="460.78" x2="2704.15" y2="446.78" xlink:href="#linear-gradient"/><linearGradient id="linear-gradient-18" x1="1022.88" y1="373.27" x2="1023.38" y2="482.77" xlink:href="#linear-gradient"/><linearGradient id="linear-gradient-19" x1="854.18" y1="333.34" x2="857.18" y2="232.34" xlink:href="#linear-gradient"/></defs><title>hahucloud_logo_blue</title><g id="_Group_" data-name="&lt;Group&gt;"><path id="_Path_" data-name="&lt;Path&gt;" class="cls-1" d="M740.44,351.52a167.92,167.92,0,0,0-42.73-96.19,171.21,171.21,0,0,0-38.61-31.09,159,159,0,0,0-24.28-11.83q-6.38-2.46-12.93-4.44c-3.9-1.18-8.87-1.66-12.43-3.64-3.29-1.83-3.76-5.82-4.67-9.14-1.23-4.51-2.41-9-3.91-13.46a155.34,155.34,0,0,0-10.23-22.94,164.19,164.19,0,0,0-30.24-40.4c-24.33-23.68-56-40.16-89.57-45.47-36.74-5.8-75.6.41-108.35,18.19-30.09,16.33-54.45,42.52-70.15,72.81a142.73,142.73,0,0,0-15.64,52.25c-1.9,19.32-1.34,39-1.33,58.37,0,39.37.3,78.74.2,118.1,0,9.63,1.82,47.05,28.69,69.36a107.66,107.66,0,0,0,19.89,13.54c14.28,7.15,33.57,9.69,49.06,6.18,56.48-12.82,64.82-60.89,65-69.25.43-20,.19-40,.12-60q-.11-29.71,0-59.42,0-7.41,0-14.81c0-3.21.9-8.09-.59-11.12-1.68-3.42-6.07-2.57-9.26-2.61q-7.36-.09-14.72-.1c-4.9,0-9.81,0-14.71.15-3.35.1-6.3.71-7.62,4.16s-.13,8.37-.12,12q0,7.54,0,15.08,0,29.74,0,59.49,0,15.08,0,30.16c0,9.15.7,18.6-2.78,27.28-5.08,12.67-16.69,22.32-30.67,22.21a34,34,0,0,1-31.62-22.66c-2.77-7.57-2.1-15.81-2.21-23.73q-.21-15-.35-29.94c-.38-39.92-.45-79.85-.64-119.77,0-9.16-.68-18.36,1.11-27.41a112.85,112.85,0,0,1,8-24.82,124.64,124.64,0,0,1,28.67-39.75c24.57-22.69,58.44-34.78,91.82-32.14s64.89,18.58,86.2,44.65a120.37,120.37,0,0,1,23,44.78,151.13,151.13,0,0,1,4.46,25c.46,4.72-.15,11.43,5,13.68,3,1.32,6.58,1.14,9.77,1.72,4.28.78,8.56,1.56,12.85,2.32,8.88,1.58,17.64,3.46,26.06,6.74a120.51,120.51,0,0,1,40.1,26.29c23.45,22.87,36.42,53.61,37.4,86.31.53,17.55-4.45,36.46-11.83,52.31a123.62,123.62,0,0,1-29,39.13c-12.75,11.48-28.53,20-44.71,25.54-18.09,6.18-36.77,5.6-55.64,5.69-39.71.17-79.43-.12-119.14-.11q-60.47,0-120.93,0l-60.47-.06c-19.08,0-38.56.92-57.26-3.6-32.36-7.83-58.75-32.56-71.56-62.91-13.8-32.71-8.17-71,12.36-99.59,19.52-27.2,51.07-43,84.28-44.5,7.35-.33,13.7-.92,19.46-6A23.53,23.53,0,0,0,251,254a22.5,22.5,0,0,0-8.57-16.92c-6.16-4.86-13.3-5.42-20.87-5.15-35.61,1.27-69.43,15.73-96,39.26-13.05,11.57-23.54,25.66-31.82,41a151.12,151.12,0,0,0-10.53,24,124.46,124.46,0,0,0-3.51,12.66c-.46,2.1-.65,4.37-1.31,6.4s-5.14,26.21-.5,54.23c.35,2.1.92,4.19,1.3,6.28,2.91,16.24,9.89,32.38,18.47,46.41a156,156,0,0,0,74.43,62.62,132.1,132.1,0,0,0,26.25,7.59c4.68.84,9.38,1.49,14.09,2.11,3.82.5,3.82.5,12.26.55,9.32,0,18.74.1,28,.1l30.17,0q119.85-.07,239.7,0c19.64,0,39.42.73,59-.34a164.29,164.29,0,0,0,54-12.21c32.94-13.49,59.94-35.17,79.3-65.13,9.65-14.93,17.39-31.23,21.33-48.63,2.09-9.25,4.48-18.86,5.2-28.33S741.42,361,740.44,351.52Z"/><path id="_Path_2" data-name="&lt;Path&gt;" class="cls-1" d="M491.09,266.15c-2.11-1.63-5.18-1.72-7.72-1.8-4.6-.14-9.22,0-13.82,0-5.12,0-10.25-.08-15.38,0-1.66,0-4.07-.27-5.22,1.22-1.48,1.93-.61,6.95-.61,9.07q0,7.49,0,15,0,30.78.05,61.57,0,31.62-.22,63.23c-.07,8.64.63,17,4.28,25,3.56,7.77,9.42,14.56,15.67,20.3a88.53,88.53,0,0,0,20.94,14.71c7.28,3.55,17.75,7.36,27.69,7.36,67.48,0,80.83-33.29,87.42-49.08,1.19-2.85,1.65-8.67,4.59-10.27,2.61-1.42,7.45-.45,10.25-.45h15.64c3.55,0,7.68.52,11.18-.31,5.45-1.29,4.07-8.78,4.1-13,.07-9.49.51-19.17-.05-28.64-.37-6.34-3.7-7.21-9.54-7.17-10.3.06-20.6,0-30.91,0,.91-9.44.68-18.86.66-28.35,0-20.82-.12-41.64-.09-62.46,0-5.49,1.55-14.39-5-16.9-3.77-1.45-8.38-1.11-12.31-1.11-5,0-10,0-15,0-4.22,0-13.69-1.41-16.17,3.45-1.26,2.47-.86,6-.87,8.62,0,5,0,10,0,15q0,31.65,0,63.3,0,15.26,0,30.53c0,9.59,0,19.53-2.58,28.85-3.87,13.95-18,24.88-32.75,24.2-15.94-.74-29.65-13.35-30.83-29.14-1.55-20.63-.54-41.64-.56-62.32q0-31.34,0-62.69C494,278.93,495.7,269.71,491.09,266.15Z"/></g><path id="_Path_3" data-name="&lt;Path&gt;" class="cls-2" d="M605.78,199s8,24.9,6.21,51.88c0,0,10.53-1.42,29.35,13.79l25-35.88S640.63,212,619.88,207.73C619.88,207.73,609.31,205.08,605.78,199Z"/><path id="_Path_4" data-name="&lt;Path&gt;" class="cls-3" d="M155.53,462.19s23,44.08,102.47,73.06h84.5V488.78L231,488.73S188.81,492.66,155.53,462.19Z"/><path id="_Path_5" data-name="&lt;Path&gt;" class="cls-4" d="M648.07,464.65s-23.24,41.27-102.74,70.25l-83.24.36V488.78l111.5-.05S608.5,493.23,648.07,464.65Z"/><path id="_Path_6" data-name="&lt;Path&gt;" class="cls-5" d="M609.47,372.85s-.72,18.16-1,28.81-2.24,24.56-2.22,24.3a5.35,5.35,0,0,1,5.39-4.29c4.55.1,24.15.29,24.15.29l1.49-49.11Z"/><path id="_Path_7" data-name="&lt;Path&gt;" class="cls-6" d="M391.11,401.18s2,72.07-38.41,81.89c0,0-24.05-1.06-46.88-19.78l18.92-56.84s2.18,21.53,26.59,28C351.33,434.48,384.48,441.62,391.11,401.18Z"/><path id="_Path_8" data-name="&lt;Path&gt;" class="cls-7" d="M560.72,401.18s5.4,70.74-35,80.56c0,0-28.75,4.24-50.32-18.45l19.49-50.48s2.5,18.42,26.92,24.92C521.83,437.73,556,442.9,560.72,401.18Z"/><path id="_Compound_Path_" data-name="&lt;Compound Path&gt;" class="cls-1" d="M1275.23,424.73a82.29,82.29,0,0,1-6.07,32,71.25,71.25,0,0,1-17.11,24.87,77.44,77.44,0,0,1-26.26,16,95.34,95.34,0,0,1-33.52,5.67h-11.14a116,116,0,0,1-35.81-5.27,89,89,0,0,1-28-14.42,62.11,62.11,0,0,1-24.17-49.93,65.35,65.35,0,0,1,5.67-27.25q5.67-12.53,18.5-21.78t33.82-14.52q21-5.27,51.23-5.27h19.1v-2.78q0-23.28-11.44-31.83t-35.71-8.55a126.79,126.79,0,0,0-26.36,2.49,99.39,99.39,0,0,0-20.19,6.37,74.43,74.43,0,0,0-14.42,8.36,55.38,55.38,0,0,0-8.85,8.06h-2V329.44a45.11,45.11,0,0,1,4.28-18.5,49.11,49.11,0,0,1,13.83-17.51q9.55-8,24.87-12.83t36.8-4.87a130.19,130.19,0,0,1,35.21,4.68,74.23,74.23,0,0,1,29.54,16q12.83,11.34,20.49,30.34t7.66,47.45ZM1221.91,404h-19.5a155.52,155.52,0,0,0-25.86,1.79q-10.35,1.79-16.51,5.27a19.39,19.39,0,0,0-8.55,8.75,28.39,28.39,0,0,0-2.39,11.84q0,13.13,9.75,20.19t28,7.06q35,0,35-33.82Z"/><path id="_Compound_Path_2" data-name="&lt;Compound Path&gt;" class="cls-1" d="M1496.24,499.72q-17.11,0-27.05-9.35t-9.95-27.25V373.4q0-13.32-3.48-23a40.78,40.78,0,0,0-9.45-15.52,38.4,38.4,0,0,0-13.83-8.75,48.46,48.46,0,0,0-16.81-2.88,37.47,37.47,0,0,0-13.53,2.69,35.74,35.74,0,0,0-12.83,8.75,45.41,45.41,0,0,0-9.55,15.91q-3.68,9.85-3.68,24.37V499.72h-17.9q-19.69,0-28.65-9.75t-9-26.86V206.3h17.11q19.69,0,29.24,9.85t9.55,25.36v62.66a46.77,46.77,0,0,1,7.86-10,81.73,81.73,0,0,1,11.24-9.35,51,51,0,0,1,13.53-7.06c8.06-2.56,8.06-2.56,15.12-2.78,28.5-.9,50.63,8.19,66.34,24.57s23.57,40.22,23.57,71.52V499.72Z"/><path id="_Compound_Path_3" data-name="&lt;Compound Path&gt;" class="cls-1" d="M1760.23,401.05q0,103.65-96.08,103.64a109,109,0,0,1-38.19-6.56,85.66,85.66,0,0,1-30.74-19.4,92.33,92.33,0,0,1-20.59-31.33q-7.56-18.5-7.56-42.57V279.7h10.15q23.67,0,34.51,9.75t10.84,29.44v80.57q0,30.24,12.83,43.47a42.2,42.2,0,0,0,31.53,13.23q17.11,0,27.65-12.43t10.54-40.48V279.7h9.95q23.87,0,34.51,9.75t10.64,29.44Z"/><path id="_Compound_Path_4" data-name="&lt;Compound Path&gt;" class="cls-1" d="M2023.22,295.22A57.4,57.4,0,0,0,2007.3,281a104.2,104.2,0,0,0-20-9.35,113.5,113.5,0,0,0-21.19-5.17,139.78,139.78,0,0,0-19.5-1.49,89.87,89.87,0,0,0-34.61,6.56,82,82,0,0,0-27.55,18.4,83.08,83.08,0,0,0-18.1,28.35q-6.47,16.51-6.47,36.8,0,24.47,6.47,43t18.1,30.93a72.84,72.84,0,0,0,28.15,18.6,102.09,102.09,0,0,0,36,6.17,110.9,110.9,0,0,0,21-2.09,139.72,139.72,0,0,0,20.59-5.57,107.51,107.51,0,0,0,18.1-8.36,61.76,61.76,0,0,0,14.12-11h2V447.6q0,14.32-7.56,24.67a60.64,60.64,0,0,1-19.59,17.11,91.27,91.27,0,0,1-26.66,9.75,146.39,146.39,0,0,1-29.34,3,141.57,141.57,0,0,1-52.72-9.95,134.63,134.63,0,0,1-44-28,132,132,0,0,1-29.94-43.77q-11-25.66-11-57.09,0-32.23,10.34-59.08a137.73,137.73,0,0,1,29.14-46.45,129.62,129.62,0,0,1,45.06-30.34q26.26-10.74,58.09-10.74a138.16,138.16,0,0,1,31.53,3.38,75.28,75.28,0,0,1,25.07,10.54,50.46,50.46,0,0,1,16.51,18q5.87,10.84,5.87,25v21.68Z"/><path id="_Compound_Path_5" data-name="&lt;Compound Path&gt;" class="cls-1" d="M2164.86,468.69q0,17.9-9.15,25.46t-27.45,7.56q-34.22,0-52-17.51t-17.8-50.93v-227h15.52q20.89,0,30,10.64t9.15,26.16v185c0,11.14,2.78,17.93,8.75,22.78,5.51,4.47,15.25,6.07,28.25,6.07h14.72Z"/><path id="_Compound_Path_6" data-name="&lt;Compound Path&gt;" class="cls-1" d="M2178.78,393.89a150.42,150.42,0,0,1,7-46.45,108.11,108.11,0,0,1,20.79-37.7,98.47,98.47,0,0,1,34.22-25.46q20.39-9.35,46.85-9.35,24.87,0,44.16,9.15a97.11,97.11,0,0,1,32.53,24.57,108.76,108.76,0,0,1,20.19,35.41,127,127,0,0,1,7,42.07,146.6,146.6,0,0,1-7.16,46.45,111.49,111.49,0,0,1-20.79,37.6,96,96,0,0,1-34,25.26q-20.39,9.25-46.85,9.25-24.87,0-44.16-9.25A99.41,99.41,0,0,1,2205.94,471a106.36,106.36,0,0,1-20.19-35.21A126.35,126.35,0,0,1,2178.78,393.89Zm156,0q0-33-12.63-51.62t-39.49-18.6q-23.68,0-35.41,17.51t-11.74,45q0,32.82,12.43,51.23t39.69,18.4q24.07,0,35.61-17.51T2334.75,393.89Z"/><path id="_Compound_Path_7" data-name="&lt;Compound Path&gt;" class="cls-1" d="M2627.38,401.05q0,103.65-96.08,103.64a109,109,0,0,1-38.19-6.56,85.66,85.66,0,0,1-30.74-19.4,92.33,92.33,0,0,1-20.59-31.33q-7.56-18.5-7.56-42.57V279.7h10.15q23.67,0,34.51,9.75t10.84,29.44v80.57q0,30.24,12.83,43.47a42.2,42.2,0,0,0,31.53,13.23q17.11,0,27.65-12.43t10.54-40.48V279.7h9.95q23.87,0,34.51,9.75t10.64,29.44Z"/><path id="_Compound_Path_8" data-name="&lt;Compound Path&gt;" class="cls-1" d="M2877.44,398.27q0,24.07-5.87,43.57a87.51,87.51,0,0,1-18.5,33.62q-12.64,14.13-32.82,21.68T2772,504.7a94.07,94.07,0,0,1-40.38-8.75,101.1,101.1,0,0,1-32.53-24.07,113.35,113.35,0,0,1-21.58-35.31,116.92,116.92,0,0,1-7.76-42.67q0-27.05,6.47-49t18.9-37.7a80.69,80.69,0,0,1,31-24q18.6-8.25,42.67-8.26a55.68,55.68,0,0,1,16.51,2.59,63.4,63.4,0,0,1,15.62,7.26,70.2,70.2,0,0,1,13.23,11,47.85,47.85,0,0,1,9.15,13.73V206.3H2840q19.49,0,28.45,10.25t9,27Zm-54.91-2.39q0-20.89-4.28-35.11t-11.44-23A43.29,43.29,0,0,0,2789.91,325a53.11,53.11,0,0,0-20.69-4.08,38.46,38.46,0,0,0-19.1,4.67,42.87,42.87,0,0,0-14.22,13,65.62,65.62,0,0,0-9.15,19.79,89.49,89.49,0,0,0-3.28,24.77,105.35,105.35,0,0,0,4.28,31,78.46,78.46,0,0,0,11.64,23.87,51.43,51.43,0,0,0,17.31,15.22,46,46,0,0,0,21.88,5.27q23.08,0,33.52-16.31T2822.53,395.88Z"/><path id="_Path_9" data-name="&lt;Path&gt;" class="cls-8" d="M2281.13,333q-23.68,0-35.41,17.51t-11.74,45q0,32.82,12.43,51.23t39.69,18.4q24.07,0,35.61-17.51t11.54-44.36q0-33-12.63-51.62T2281.13,333Z"/><path id="_Path_10" data-name="&lt;Path&gt;" class="cls-9" d="M1221.52,364.85l.4,39.19s-24.16-.57-40.42,1.08L1175.77,366S1194.41,364.66,1221.52,364.85Z"/><path id="_Path_11" data-name="&lt;Path&gt;" class="cls-10" d="M1221.91,431.49s.62,58.09-36.06,71.81c0,0-29.46,0-43.73-6.48L1119.68,450l39.52,1.85a30.12,30.12,0,0,0,8.23,4.19c8,2.85,22.88,4.67,35.33.67,4.28-1.37,6.14-3,8.46-4.21C1211.22,452.53,1220.86,446,1221.91,431.49Z"/><path id="_Path_12" data-name="&lt;Path&gt;" class="cls-11" d="M1376.49,304.17l-.4,70.57s-.22-33.66,20.35-45.81A34.68,34.68,0,0,1,1411,323.6l4.34-47.87S1393.63,279.45,1376.49,304.17Z"/><path id="_Path_13" data-name="&lt;Path&gt;" class="cls-12" d="M1622.64,406.36s5,79.51,37,97.25c0,0,30.88,2.86,56.28-10.7l-23.8-47.75s-16.73,18.44-45.81,5.36C1646.33,450.53,1623.17,440.36,1622.64,406.36Z"/><path id="_Path_14" data-name="&lt;Path&gt;" class="cls-13" d="M2572.24,406.19s-.74,78.26-38.49,98.51c0,0-31.08,1.09-55.44-13.75l24.47-47.32s18.16,19.5,45.56,9.91C2548.33,453.54,2573.44,446.17,2572.24,406.19Z"/><path id="_Path_15" data-name="&lt;Path&gt;" class="cls-14" d="M1864.86,320.85s-32.53,77.07,3,164.53c0,0,33,20.2,71,19.28l3.37-51.07S1840.5,455.12,1864.86,320.85Z"/><path id="_Path_16" data-name="&lt;Path&gt;" class="cls-15" d="M2113.45,434.08s1,56.59,11,67.57a59.06,59.06,0,0,0,26.84-4.6l3-40.11s-21.13,1.23-31.18-5.25C2117,447.73,2114,440.75,2113.45,434.08Z"/><path id="_Path_17" data-name="&lt;Path&gt;" class="cls-16" d="M2290.39,323.28s69.45,5.58,99,75.78c0,0-5.11,43.45-24.06,66l-43.58-27.85s17.29-21.89,9.62-67.22C2331.33,370,2327.78,326.2,2290.39,323.28Z"/><path id="_Path_18" data-name="&lt;Path&gt;" class="cls-17" d="M2236.83,406.19s8.17,68.67,45.8,98.51c0,0-90.56,7.89-103.84-105.64,0,0,.44-30.14,4.64-43.56L2238,363S2233.51,388.13,2236.83,406.19Z"/><path id="_Path_19" data-name="&lt;Path&gt;" class="cls-18" d="M2823.33,309.54l-.8,84.49s2.64-55.49-32.62-69.07l-24.39-50S2803.4,271.81,2823.33,309.54Z"/><path id="_Path_20" data-name="&lt;Path&gt;" class="cls-19" d="M2819.75,423.21S2809,493,2765.52,503.76c0,0-38.27,4.31-72.23-38.88l31.09-66.57s5.12,61.23,56.63,60.18C2781,458.49,2813.25,460.42,2819.75,423.21Z"/><path id="_Path_21" data-name="&lt;Path&gt;" class="cls-1" d="M830.68,238a29.5,29.5,0,0,1,6.86-9.35,31,31,0,0,1,9.65-6,29,29,0,0,1,10.54-2.09H883V329.4H995.8V250.06a29.75,29.75,0,0,1,8-20.69,25.77,25.77,0,0,1,19.89-8.75h27.25v241.7q0,18.3-9.75,27.85t-24.07,9.55H995.4V384H883v78.35q0,18.3-10.15,27.85t-22.48,9.55H828.1V250.06A27.84,27.84,0,0,1,830.68,238Z"/><path id="_Path_22" data-name="&lt;Path&gt;" class="cls-20" d="M995.4,384s53.07-4.68,55.5,34.82v25l-30.4,38.26-25.1-38.26Z"/><path id="_Path_23" data-name="&lt;Path&gt;" class="cls-21" d="M882.93,329.41s-53.07,4.68-55.5-34.82v-25l27.75-25.3,27.75,25.3Z"/></svg>